<svg width="13" height="21" viewBox="0 0 13 21" fill="none" xmlns="http://www.w3.org/2000/svg">
<mask id="path-1-inside-1_19_35" fill="white">
<path d="M5.68248e-07 6.5C4.93625e-07 5.64641 0.168127 4.80118 0.494784 4.01256C0.821439 3.22394 1.30023 2.50739 1.90381 1.90381C2.50739 1.30023 3.22394 0.821439 4.01256 0.494784C4.80117 0.168128 5.64641 6.0556e-07 6.5 5.68248e-07L6.5 0.986739C5.77599 0.986739 5.05907 1.12934 4.39017 1.40641C3.72127 1.68348 3.11349 2.08958 2.60154 2.60154C2.08958 3.11349 1.68348 3.72127 1.40641 4.39017C1.12934 5.05907 0.986739 5.77599 0.986739 6.5L5.68248e-07 6.5Z"/>
</mask>
<path d="M5.68248e-07 6.5C4.93625e-07 5.64641 0.168127 4.80118 0.494784 4.01256C0.821439 3.22394 1.30023 2.50739 1.90381 1.90381C2.50739 1.30023 3.22394 0.821439 4.01256 0.494784C4.80117 0.168128 5.64641 6.0556e-07 6.5 5.68248e-07L6.5 0.986739C5.77599 0.986739 5.05907 1.12934 4.39017 1.40641C3.72127 1.68348 3.11349 2.08958 2.60154 2.60154C2.08958 3.11349 1.68348 3.72127 1.40641 4.39017C1.12934 5.05907 0.986739 5.77599 0.986739 6.5L5.68248e-07 6.5Z" stroke="#060606" stroke-width="2" mask="url(#path-1-inside-1_19_35)"/>
<line y1="-0.5" x2="15" y2="-0.5" transform="matrix(4.37114e-08 -1 -1 -4.37114e-08 0 21)" stroke="#060606"/>
</svg>
