<svg width="13" height="21" viewBox="0 0 13 21" fill="none" xmlns="http://www.w3.org/2000/svg">
<mask id="path-1-inside-1_19_39" fill="white">
<path d="M13 6.5C13 5.64641 12.8319 4.80118 12.5052 4.01256C12.1786 3.22394 11.6998 2.50739 11.0962 1.90381C10.4926 1.30023 9.77606 0.821439 8.98744 0.494784C8.19883 0.168128 7.35359 6.0556e-07 6.5 5.68248e-07L6.5 0.986739C7.22401 0.986739 7.94093 1.12934 8.60983 1.40641C9.27873 1.68348 9.88651 2.08958 10.3985 2.60154C10.9104 3.11349 11.3165 3.72127 11.5936 4.39017C11.8707 5.05907 12.0133 5.77599 12.0133 6.5L13 6.5Z"/>
</mask>
<path d="M13 6.5C13 5.64641 12.8319 4.80118 12.5052 4.01256C12.1786 3.22394 11.6998 2.50739 11.0962 1.90381C10.4926 1.30023 9.77606 0.821439 8.98744 0.494784C8.19883 0.168128 7.35359 6.0556e-07 6.5 5.68248e-07L6.5 0.986739C7.22401 0.986739 7.94093 1.12934 8.60983 1.40641C9.27873 1.68348 9.88651 2.08958 10.3985 2.60154C10.9104 3.11349 11.3165 3.72127 11.5936 4.39017C11.8707 5.05907 12.0133 5.77599 12.0133 6.5L13 6.5Z" stroke="#060606" stroke-width="2" mask="url(#path-1-inside-1_19_39)"/>
<line x1="12.5" y1="21" x2="12.5" y2="6" stroke="#060606"/>
</svg>
