<svg width="13" height="21" viewBox="0 0 13 21" fill="none" xmlns="http://www.w3.org/2000/svg">
<mask id="path-1-inside-1_27_95" fill="white">
<path d="M1.1365e-06 14.4998C9.87249e-07 15.3533 0.168128 16.1986 0.494784 16.9872C0.821439 17.7758 1.30023 18.4924 1.90381 19.0959C2.50739 19.6995 3.22394 20.1783 4.01256 20.505C4.80117 20.8316 5.64641 20.9998 6.5 20.9998L6.5 20.013C5.77599 20.013 5.05907 19.8704 4.39017 19.5933C3.72127 19.3163 3.11349 18.9102 2.60154 18.3982C2.08958 17.8863 1.68348 17.2785 1.40641 16.6096C1.12934 15.9407 0.986739 15.2238 0.986739 14.4998L1.1365e-06 14.4998Z"/>
</mask>
<path d="M1.1365e-06 14.4998C9.87249e-07 15.3533 0.168128 16.1986 0.494784 16.9872C0.821439 17.7758 1.30023 18.4924 1.90381 19.0959C2.50739 19.6995 3.22394 20.1783 4.01256 20.505C4.80117 20.8316 5.64641 20.9998 6.5 20.9998L6.5 20.013C5.77599 20.013 5.05907 19.8704 4.39017 19.5933C3.72127 19.3163 3.11349 18.9102 2.60154 18.3982C2.08958 17.8863 1.68348 17.2785 1.40641 16.6096C1.12934 15.9407 0.986739 15.2238 0.986739 14.4998L1.1365e-06 14.4998Z" stroke="#CCC9C9" stroke-width="2" mask="url(#path-1-inside-1_27_95)"/>
<line x1="0.5" y1="-0.000244119" x2="0.499999" y2="14.9998" stroke="#CCC9C9"/>
</svg>
