<svg width="13" height="21" viewBox="0 0 13 21" fill="none" xmlns="http://www.w3.org/2000/svg">
<mask id="path-1-inside-1_27_92" fill="white">
<path d="M13 14.5C13 15.3536 12.8319 16.1988 12.5052 16.9874C12.1786 17.7761 11.6998 18.4926 11.0962 19.0962C10.4926 19.6998 9.77606 20.1786 8.98744 20.5052C8.19883 20.8319 7.35359 21 6.5 21V20.0133C7.22401 20.0133 7.94093 19.8707 8.60983 19.5936C9.27873 19.3165 9.88651 18.9104 10.3985 18.3985C10.9104 17.8865 11.3165 17.2787 11.5936 16.6098C11.8707 15.9409 12.0133 15.224 12.0133 14.5H13Z"/>
</mask>
<path d="M13 14.5C13 15.3536 12.8319 16.1988 12.5052 16.9874C12.1786 17.7761 11.6998 18.4926 11.0962 19.0962C10.4926 19.6998 9.77606 20.1786 8.98744 20.5052C8.19883 20.8319 7.35359 21 6.5 21V20.0133C7.22401 20.0133 7.94093 19.8707 8.60983 19.5936C9.27873 19.3165 9.88651 18.9104 10.3985 18.3985C10.9104 17.8865 11.3165 17.2787 11.5936 16.6098C11.8707 15.9409 12.0133 15.224 12.0133 14.5H13Z" stroke="#CCC9C9" stroke-width="2" mask="url(#path-1-inside-1_27_92)"/>
<line y1="-0.5" x2="15" y2="-0.5" transform="matrix(-1.31134e-07 1 1 1.31134e-07 13 0)" stroke="#CCC9C9"/>
</svg>
