<svg width="13" height="21" viewBox="0 0 13 21" fill="none" xmlns="http://www.w3.org/2000/svg">
<mask id="path-1-inside-1_30_140" fill="white">
<path d="M1.70474e-06 6.50013C1.48087e-06 5.64653 0.168128 4.8013 0.494784 4.01268C0.82144 3.22407 1.30023 2.50751 1.90381 1.90393C2.50739 1.30035 3.22394 0.821563 4.01256 0.494907C4.80117 0.168252 5.64641 0.000123962 6.5 0.000123775L6.5 0.986862C5.77599 0.986862 5.05907 1.12947 4.39017 1.40653C3.72127 1.6836 3.11349 2.08971 2.60154 2.60166C2.08958 3.11361 1.68348 3.72139 1.40641 4.39029C1.12934 5.05919 0.98674 5.77611 0.98674 6.50013L1.70474e-06 6.50013Z"/>
</mask>
<path d="M1.70474e-06 6.50013C1.48087e-06 5.64653 0.168128 4.8013 0.494784 4.01268C0.82144 3.22407 1.30023 2.50751 1.90381 1.90393C2.50739 1.30035 3.22394 0.821563 4.01256 0.494907C4.80117 0.168252 5.64641 0.000123962 6.5 0.000123775L6.5 0.986862C5.77599 0.986862 5.05907 1.12947 4.39017 1.40653C3.72127 1.6836 3.11349 2.08971 2.60154 2.60166C2.08958 3.11361 1.68348 3.72139 1.40641 4.39029C1.12934 5.05919 0.98674 5.77611 0.98674 6.50013L1.70474e-06 6.50013Z" stroke="#CCC9C9" stroke-width="2" mask="url(#path-1-inside-1_30_140)"/>
<line y1="-0.5" x2="15" y2="-0.5" transform="matrix(-1.31134e-07 -1 -1 1.31134e-07 0 21.0001)" stroke="#CCC9C9"/>
</svg>
