<svg width="13" height="21" viewBox="0 0 13 21" fill="none" xmlns="http://www.w3.org/2000/svg">
<mask id="path-1-inside-1_34_176" fill="white">
<path d="M1.70474e-06 6.50049C1.48087e-06 5.6469 0.168128 4.80167 0.494784 4.01305C0.82144 3.22443 1.30023 2.50788 1.90381 1.9043C2.50739 1.30072 3.22394 0.821929 4.01256 0.495274C4.80117 0.168618 5.64641 0.000490173 6.5 0.000489986L6.5 0.987228C5.77599 0.987228 5.05907 1.12983 4.39017 1.4069C3.72127 1.68397 3.11349 2.09007 2.60154 2.60203C2.08958 3.11398 1.68348 3.72176 1.40641 4.39066C1.12934 5.05956 0.98674 5.77648 0.98674 6.50049L1.70474e-06 6.50049Z"/>
</mask>
<path d="M1.70474e-06 6.50049C1.48087e-06 5.6469 0.168128 4.80167 0.494784 4.01305C0.82144 3.22443 1.30023 2.50788 1.90381 1.9043C2.50739 1.30072 3.22394 0.821929 4.01256 0.495274C4.80117 0.168618 5.64641 0.000490173 6.5 0.000489986L6.5 0.987228C5.77599 0.987228 5.05907 1.12983 4.39017 1.4069C3.72127 1.68397 3.11349 2.09007 2.60154 2.60203C2.08958 3.11398 1.68348 3.72176 1.40641 4.39066C1.12934 5.05956 0.98674 5.77648 0.98674 6.50049L1.70474e-06 6.50049Z" stroke="white" stroke-width="2" mask="url(#path-1-inside-1_34_176)"/>
<line y1="-0.5" x2="15" y2="-0.5" transform="matrix(-1.31134e-07 -1 -1 1.31134e-07 0 21.0005)" stroke="white"/>
</svg>
