<svg width="13" height="21" viewBox="0 0 13 21" fill="none" xmlns="http://www.w3.org/2000/svg">
<mask id="path-1-inside-1_34_179" fill="white">
<path d="M13 6.50017C13 5.64657 12.8319 4.80134 12.5052 4.01272C12.1786 3.22411 11.6998 2.50755 11.0962 1.90397C10.4926 1.30039 9.77606 0.821605 8.98744 0.49495C8.19883 0.168295 7.35359 0.000167166 6.5 0.000167278L6.5 0.986905C7.22401 0.986905 7.94093 1.12951 8.60983 1.40658C9.27873 1.68364 9.88651 2.08975 10.3985 2.6017C10.9104 3.11366 11.3165 3.72143 11.5936 4.39033C11.8707 5.05923 12.0133 5.77615 12.0133 6.50017L13 6.50017Z"/>
</mask>
<path d="M13 6.50017C13 5.64657 12.8319 4.80134 12.5052 4.01272C12.1786 3.22411 11.6998 2.50755 11.0962 1.90397C10.4926 1.30039 9.77606 0.821605 8.98744 0.49495C8.19883 0.168295 7.35359 0.000167166 6.5 0.000167278L6.5 0.986905C7.22401 0.986905 7.94093 1.12951 8.60983 1.40658C9.27873 1.68364 9.88651 2.08975 10.3985 2.6017C10.9104 3.11366 11.3165 3.72143 11.5936 4.39033C11.8707 5.05923 12.0133 5.77615 12.0133 6.50017L13 6.50017Z" stroke="white" stroke-width="2" mask="url(#path-1-inside-1_34_179)"/>
<line x1="12.5" y1="21.0002" x2="12.5" y2="6.00017" stroke="white"/>
</svg>
